<svg width="223" height="66" viewBox="0 0 223 66" fill="none" xmlns="http://www.w3.org/2000/svg">
<path d="M98.8394 61L90.8394 37.24C94.6794 35.56 96.9194 32.2 96.9194 26.84V16.84C96.9194 8.36 91.3194 5 82.8394 5H68.3594V61H77.6394V38.68H82.2794L89.3994 61H98.8394ZM77.6394 13.16H82.5194C85.5594 13.16 87.6394 14.28 87.6394 18.28V25.56C87.6394 29.56 85.5594 30.68 82.5194 30.68H77.6394V13.16ZM129.253 61V52.84H113.733V36.68H126.533V28.52H113.733V13.16H129.013V5H104.453V61H129.253ZM159.381 52.68H145.061V5H135.781V61H159.381V52.68ZM184.215 61H193.655L183.095 5H171.415L161.015 61H169.975L171.975 48.52H182.215L184.215 61ZM173.175 40.84L177.095 15.96L181.015 40.84H173.175ZM210.716 41.08L221.996 5H212.396L206.156 31L199.916 5H190.156L201.436 41.08V61H210.716V41.08Z" fill="#111111"/>
<path d="M41.8427 30.5255C41.5592 29.899 40.9362 29.5 40.2502 29.5H33.2502V6.75C33.2502 5.784 32.4662 5 31.5002 5H24.5002C23.5342 5 22.7502 5.784 22.7502 6.75V29.5H15.7502C15.0642 29.5 14.4412 29.9025 14.1577 30.5255C13.8707 31.152 13.9827 31.8835 14.4342 32.4015L26.6842 46.4015C27.0167 46.783 27.4962 47 28.0002 47C28.5042 47 28.9837 46.7795 29.3162 46.4015L41.5662 32.4015C42.0212 31.887 42.1262 31.152 41.8427 30.5255Z" fill="#111111"/>
<path d="M47.25 43.5V54H8.75V43.5H1.75V57.5C1.75 59.4355 3.318 61 5.25 61H50.75C52.6855 61 54.25 59.4355 54.25 57.5V43.5H47.25Z" fill="#111111"/>
</svg>
