<svg width="223" height="99" viewBox="0 0 223 99" fill="none" xmlns="http://www.w3.org/2000/svg">
<g clip-path="url(#clip0)">
<path d="M98.8394 61L90.8394 37.24C94.6794 35.56 96.9194 32.2 96.9194 26.84V16.84C96.9194 8.36 91.3194 5 82.8394 5H68.3594V61H77.6394V38.68H82.2794L89.3994 61H98.8394ZM77.6394 13.16H82.5194C85.5594 13.16 87.6394 14.28 87.6394 18.28V25.56C87.6394 29.56 85.5594 30.68 82.5194 30.68H77.6394V13.16ZM129.253 61V52.84H113.733V36.68H126.533V28.52H113.733V13.16H129.013V5H104.453V61H129.253ZM159.381 52.68H145.061V5H135.781V61H159.381V52.68ZM184.215 61H193.655L183.095 5H171.415L161.015 61H169.975L171.975 48.52H182.215L184.215 61ZM173.175 40.84L177.095 15.96L181.015 40.84H173.175ZM210.716 41.08L221.996 5H212.396L206.156 31L199.916 5H190.156L201.436 41.08V61H210.716V41.08Z" fill="#111111"/>
<path d="M2.54363 76.2928V94H6.43723V76.2928H2.54363ZM9.48569 81.1784V94H13.0073V87.2792C13.0073 85.9731 13.2222 85.0389 13.6521 84.4768C14.082 83.8981 14.7764 83.6088 15.7353 83.6088C16.5785 83.6088 17.1654 83.8733 17.4961 84.4024C17.8268 84.9149 17.9921 85.7003 17.9921 86.7584V94H21.5137V86.1136C21.5137 85.32 21.4393 84.6008 21.2905 83.956C21.1582 83.2947 20.9185 82.7408 20.5713 82.2944C20.2241 81.8315 19.7446 81.476 19.1329 81.228C18.5377 80.9635 17.7689 80.8312 16.8265 80.8312C16.0825 80.8312 15.355 81.0048 14.6441 81.352C13.9332 81.6827 13.3545 82.22 12.9081 82.964H12.8337V81.1784H9.48569ZM26.9145 89.8336H23.5665C23.5995 90.6933 23.7897 91.4125 24.1369 91.9912C24.5006 92.5533 24.9553 93.008 25.5009 93.3552C26.063 93.7024 26.6995 93.9504 27.4105 94.0992C28.1214 94.248 28.8489 94.3224 29.5929 94.3224C30.3203 94.3224 31.0313 94.248 31.7257 94.0992C32.4366 93.9669 33.0649 93.7272 33.6105 93.38C34.1561 93.0328 34.5942 92.5781 34.9249 92.016C35.2721 91.4373 35.4457 90.7264 35.4457 89.8832C35.4457 89.288 35.3299 88.792 35.0985 88.3952C34.867 87.9819 34.5611 87.6429 34.1809 87.3784C33.8006 87.0973 33.3625 86.8741 32.8665 86.7088C32.387 86.5435 31.891 86.4029 31.3785 86.2872C30.8825 86.1715 30.3947 86.064 29.9153 85.9648C29.4358 85.8656 29.0059 85.7581 28.6257 85.6424C28.2619 85.5101 27.9643 85.3448 27.7329 85.1464C27.5014 84.948 27.3857 84.6917 27.3857 84.3776C27.3857 84.1131 27.4518 83.9064 27.5841 83.7576C27.7163 83.5923 27.8734 83.4683 28.0553 83.3856C28.2537 83.3029 28.4686 83.2533 28.7001 83.2368C28.9315 83.2037 29.1465 83.1872 29.3449 83.1872C29.9731 83.1872 30.5187 83.3112 30.9817 83.5592C31.4446 83.7907 31.7009 84.2453 31.7505 84.9232H35.0985C35.0323 84.1296 34.8257 83.4765 34.4785 82.964C34.1478 82.4349 33.7262 82.0133 33.2137 81.6992C32.7011 81.3851 32.1142 81.1619 31.4529 81.0296C30.8081 80.8973 30.1385 80.8312 29.4441 80.8312C28.7497 80.8312 28.0718 80.8973 27.4105 81.0296C26.7491 81.1453 26.1539 81.3603 25.6249 81.6744C25.0958 81.972 24.6659 82.3853 24.3353 82.9144C24.0211 83.4435 23.8641 84.1213 23.8641 84.948C23.8641 85.5101 23.9798 85.9896 24.2113 86.3864C24.4427 86.7667 24.7486 87.0891 25.1289 87.3536C25.5091 87.6016 25.939 87.8083 26.4185 87.9736C26.9145 88.1224 27.4187 88.2547 27.9313 88.3704C29.1878 88.6349 30.1633 88.8995 30.8577 89.164C31.5686 89.4285 31.9241 89.8253 31.9241 90.3544C31.9241 90.6685 31.8497 90.9331 31.7009 91.148C31.5521 91.3464 31.3619 91.5117 31.1305 91.644C30.9155 91.7597 30.6675 91.8507 30.3865 91.9168C30.1219 91.9664 29.8657 91.9912 29.6177 91.9912C29.2705 91.9912 28.9315 91.9499 28.6009 91.8672C28.2867 91.7845 28.0057 91.6605 27.7577 91.4952C27.5097 91.3133 27.303 91.0901 27.1377 90.8256C26.9889 90.5445 26.9145 90.2139 26.9145 89.8336ZM41.9708 81.1784V77.3344H38.4492V81.1784H36.3164V83.5344H38.4492V91.0984C38.4492 91.7432 38.5567 92.264 38.7716 92.6608C38.9865 93.0576 39.2759 93.3635 39.6396 93.5784C40.0199 93.7933 40.4497 93.9339 40.9292 94C41.4252 94.0827 41.946 94.124 42.4916 94.124C42.8388 94.124 43.1943 94.1157 43.558 94.0992C43.9217 94.0827 44.2524 94.0496 44.55 94V91.272C44.3847 91.3051 44.2111 91.3299 44.0292 91.3464C43.8473 91.3629 43.6572 91.3712 43.4588 91.3712C42.8636 91.3712 42.4668 91.272 42.2684 91.0736C42.07 90.8752 41.9708 90.4784 41.9708 89.8832V83.5344H44.55V81.1784H41.9708ZM46.0767 85.1216C46.1263 84.2949 46.333 83.6088 46.6967 83.0632C47.0605 82.5176 47.5234 82.0795 48.0855 81.7488C48.6477 81.4181 49.2759 81.1867 49.9703 81.0544C50.6813 80.9056 51.3922 80.8312 52.1031 80.8312C52.7479 80.8312 53.401 80.8808 54.0623 80.98C54.7237 81.0627 55.3271 81.2363 55.8727 81.5008C56.4183 81.7653 56.8647 82.1373 57.2119 82.6168C57.5591 83.0797 57.7327 83.6997 57.7327 84.4768V91.148C57.7327 91.7267 57.7658 92.2805 57.8319 92.8096C57.8981 93.3387 58.0138 93.7355 58.1791 94H54.6079C54.5418 93.8016 54.4839 93.6032 54.4343 93.4048C54.4013 93.1899 54.3765 92.9749 54.3599 92.76C53.7978 93.3387 53.1365 93.7437 52.3759 93.9752C51.6154 94.2067 50.8383 94.3224 50.0447 94.3224C49.433 94.3224 48.8626 94.248 48.3335 94.0992C47.8045 93.9504 47.3415 93.7189 46.9447 93.4048C46.5479 93.0907 46.2338 92.6939 46.0023 92.2144C45.7874 91.7349 45.6799 91.1645 45.6799 90.5032C45.6799 89.7757 45.8039 89.1805 46.0519 88.7176C46.3165 88.2381 46.6471 87.8579 47.0439 87.5768C47.4573 87.2957 47.9202 87.0891 48.4327 86.9568C48.9618 86.808 49.4909 86.6923 50.0199 86.6096C50.549 86.5269 51.0698 86.4608 51.5823 86.4112C52.0949 86.3616 52.5495 86.2872 52.9463 86.188C53.3431 86.0888 53.6573 85.9483 53.8887 85.7664C54.1202 85.568 54.2277 85.2869 54.2111 84.9232C54.2111 84.5429 54.145 84.2453 54.0127 84.0304C53.897 83.7989 53.7317 83.6253 53.5167 83.5096C53.3183 83.3773 53.0786 83.2947 52.7975 83.2616C52.533 83.212 52.2437 83.1872 51.9295 83.1872C51.2351 83.1872 50.6895 83.336 50.2927 83.6336C49.8959 83.9312 49.6645 84.4272 49.5983 85.1216H46.0767ZM54.2111 87.7256C54.0623 87.8579 53.8722 87.9653 53.6407 88.048C53.4258 88.1141 53.1861 88.172 52.9215 88.2216C52.6735 88.2712 52.409 88.3125 52.1279 88.3456C51.8469 88.3787 51.5658 88.42 51.2847 88.4696C51.0202 88.5192 50.7557 88.5853 50.4911 88.668C50.2431 88.7507 50.0199 88.8664 49.8215 89.0152C49.6397 89.1475 49.4909 89.3211 49.3751 89.536C49.2594 89.7509 49.2015 90.0237 49.2015 90.3544C49.2015 90.6685 49.2594 90.9331 49.3751 91.148C49.4909 91.3629 49.6479 91.5365 49.8463 91.6688C50.0447 91.7845 50.2762 91.8672 50.5407 91.9168C50.8053 91.9664 51.0781 91.9912 51.3591 91.9912C52.0535 91.9912 52.5909 91.8755 52.9711 91.644C53.3514 91.4125 53.6325 91.1397 53.8143 90.8256C53.9962 90.4949 54.1037 90.1643 54.1367 89.8336C54.1863 89.5029 54.2111 89.2384 54.2111 89.04V87.7256ZM60.4662 81.1784V94H63.9878V87.2792C63.9878 85.9731 64.2027 85.0389 64.6326 84.4768C65.0624 83.8981 65.7568 83.6088 66.7158 83.6088C67.559 83.6088 68.1459 83.8733 68.4766 84.4024C68.8072 84.9149 68.9726 85.7003 68.9726 86.7584V94H72.4942V86.1136C72.4942 85.32 72.4198 84.6008 72.271 83.956C72.1387 83.2947 71.899 82.7408 71.5518 82.2944C71.2046 81.8315 70.7251 81.476 70.1134 81.228C69.5182 80.9635 68.7494 80.8312 67.807 80.8312C67.063 80.8312 66.3355 81.0048 65.6246 81.352C64.9136 81.6827 64.335 82.22 63.8886 82.964H63.8142V81.1784H60.4662ZM79.6309 81.1784V77.3344H76.1093V81.1784H73.9765V83.5344H76.1093V91.0984C76.1093 91.7432 76.2168 92.264 76.4317 92.6608C76.6467 93.0576 76.936 93.3635 77.2997 93.5784C77.68 93.7933 78.1099 93.9339 78.5893 94C79.0853 94.0827 79.6061 94.124 80.1517 94.124C80.4989 94.124 80.8544 94.1157 81.2181 94.0992C81.5819 94.0827 81.9125 94.0496 82.2101 94V91.272C82.0448 91.3051 81.8712 91.3299 81.6893 91.3464C81.5075 91.3629 81.3173 91.3712 81.1189 91.3712C80.5237 91.3712 80.1269 91.272 79.9285 91.0736C79.7301 90.8752 79.6309 90.4784 79.6309 89.8832V83.5344H82.2101V81.1784H79.6309ZM95.0536 90.7264V79.5664H97.8312C98.7902 79.5664 99.592 79.7069 100.237 79.988C100.898 80.2525 101.427 80.6411 101.824 81.1536C102.221 81.6661 102.502 82.2861 102.667 83.0136C102.849 83.7245 102.94 84.5264 102.94 85.4192C102.94 86.3947 102.816 87.2213 102.568 87.8992C102.32 88.5771 101.989 89.1309 101.576 89.5608C101.163 89.9741 100.691 90.2717 100.162 90.4536C99.6334 90.6355 99.0878 90.7264 98.5256 90.7264H95.0536ZM91.16 76.2928V94H98.7984C100.154 94 101.328 93.7768 102.32 93.3304C103.329 92.8675 104.163 92.2392 104.825 91.4456C105.503 90.652 106.007 89.7096 106.338 88.6184C106.668 87.5272 106.834 86.3368 106.834 85.0472C106.834 83.5757 106.627 82.2944 106.214 81.2032C105.817 80.112 105.255 79.2027 104.527 78.4752C103.816 77.7477 102.965 77.2021 101.973 76.8384C100.997 76.4747 99.9392 76.2928 98.7984 76.2928H91.16ZM112.295 87.6016C112.295 87.0891 112.344 86.5848 112.444 86.0888C112.543 85.5928 112.708 85.1547 112.94 84.7744C113.188 84.3941 113.51 84.0883 113.907 83.8568C114.304 83.6088 114.8 83.4848 115.395 83.4848C115.99 83.4848 116.486 83.6088 116.883 83.8568C117.296 84.0883 117.619 84.3941 117.85 84.7744C118.098 85.1547 118.272 85.5928 118.371 86.0888C118.47 86.5848 118.52 87.0891 118.52 87.6016C118.52 88.1141 118.47 88.6184 118.371 89.1144C118.272 89.5939 118.098 90.032 117.85 90.4288C117.619 90.8091 117.296 91.1149 116.883 91.3464C116.486 91.5779 115.99 91.6936 115.395 91.6936C114.8 91.6936 114.304 91.5779 113.907 91.3464C113.51 91.1149 113.188 90.8091 112.94 90.4288C112.708 90.032 112.543 89.5939 112.444 89.1144C112.344 88.6184 112.295 88.1141 112.295 87.6016ZM108.773 87.6016C108.773 88.6267 108.93 89.5525 109.244 90.3792C109.559 91.2059 110.005 91.9168 110.584 92.512C111.162 93.0907 111.857 93.5371 112.667 93.8512C113.477 94.1653 114.386 94.3224 115.395 94.3224C116.403 94.3224 117.313 94.1653 118.123 93.8512C118.95 93.5371 119.652 93.0907 120.231 92.512C120.81 91.9168 121.256 91.2059 121.57 90.3792C121.884 89.5525 122.041 88.6267 122.041 87.6016C122.041 86.5765 121.884 85.6507 121.57 84.824C121.256 83.9808 120.81 83.2699 120.231 82.6912C119.652 82.096 118.95 81.6413 118.123 81.3272C117.313 80.9965 116.403 80.8312 115.395 80.8312C114.386 80.8312 113.477 80.9965 112.667 81.3272C111.857 81.6413 111.162 82.096 110.584 82.6912C110.005 83.2699 109.559 83.9808 109.244 84.824C108.93 85.6507 108.773 86.5765 108.773 87.6016ZM138.988 94L143.03 81.1784H139.409L137.053 89.8584H137.004L134.821 81.1784H131.399L129.266 89.8832H129.217L126.861 81.1784H123.141L127.208 94H130.853L133.036 85.3944H133.085L135.367 94H138.988ZM144.529 81.1784V94H148.051V87.2792C148.051 85.9731 148.266 85.0389 148.696 84.4768C149.126 83.8981 149.82 83.6088 150.779 83.6088C151.622 83.6088 152.209 83.8733 152.54 84.4024C152.87 84.9149 153.036 85.7003 153.036 86.7584V94H156.557V86.1136C156.557 85.32 156.483 84.6008 156.334 83.956C156.202 83.2947 155.962 82.7408 155.615 82.2944C155.268 81.8315 154.788 81.476 154.177 81.228C153.581 80.9635 152.813 80.8312 151.87 80.8312C151.126 80.8312 150.399 81.0048 149.688 81.352C148.977 81.6827 148.398 82.22 147.952 82.964H147.877V81.1784H144.529ZM159.329 76.2928V94H162.851V76.2928H159.329ZM168.749 87.6016C168.749 87.0891 168.798 86.5848 168.898 86.0888C168.997 85.5928 169.162 85.1547 169.394 84.7744C169.642 84.3941 169.964 84.0883 170.361 83.8568C170.758 83.6088 171.254 83.4848 171.849 83.4848C172.444 83.4848 172.94 83.6088 173.337 83.8568C173.75 84.0883 174.073 84.3941 174.304 84.7744C174.552 85.1547 174.726 85.5928 174.825 86.0888C174.924 86.5848 174.974 87.0891 174.974 87.6016C174.974 88.1141 174.924 88.6184 174.825 89.1144C174.726 89.5939 174.552 90.032 174.304 90.4288C174.073 90.8091 173.75 91.1149 173.337 91.3464C172.94 91.5779 172.444 91.6936 171.849 91.6936C171.254 91.6936 170.758 91.5779 170.361 91.3464C169.964 91.1149 169.642 90.8091 169.394 90.4288C169.162 90.032 168.997 89.5939 168.898 89.1144C168.798 88.6184 168.749 88.1141 168.749 87.6016ZM165.227 87.6016C165.227 88.6267 165.384 89.5525 165.698 90.3792C166.013 91.2059 166.459 91.9168 167.038 92.512C167.616 93.0907 168.311 93.5371 169.121 93.8512C169.931 94.1653 170.84 94.3224 171.849 94.3224C172.857 94.3224 173.767 94.1653 174.577 93.8512C175.403 93.5371 176.106 93.0907 176.685 92.512C177.263 91.9168 177.71 91.2059 178.024 90.3792C178.338 89.5525 178.495 88.6267 178.495 87.6016C178.495 86.5765 178.338 85.6507 178.024 84.824C177.71 83.9808 177.263 83.2699 176.685 82.6912C176.106 82.096 175.403 81.6413 174.577 81.3272C173.767 80.9965 172.857 80.8312 171.849 80.8312C170.84 80.8312 169.931 80.9965 169.121 81.3272C168.311 81.6413 167.616 82.096 167.038 82.6912C166.459 83.2699 166.013 83.9808 165.698 84.824C165.384 85.6507 165.227 86.5765 165.227 87.6016ZM180.636 85.1216C180.686 84.2949 180.892 83.6088 181.256 83.0632C181.62 82.5176 182.083 82.0795 182.645 81.7488C183.207 81.4181 183.835 81.1867 184.53 81.0544C185.241 80.9056 185.952 80.8312 186.663 80.8312C187.307 80.8312 187.96 80.8808 188.622 80.98C189.283 81.0627 189.887 81.2363 190.432 81.5008C190.978 81.7653 191.424 82.1373 191.771 82.6168C192.119 83.0797 192.292 83.6997 192.292 84.4768V91.148C192.292 91.7267 192.325 92.2805 192.391 92.8096C192.457 93.3387 192.573 93.7355 192.739 94H189.167C189.101 93.8016 189.043 93.6032 188.994 93.4048C188.961 93.1899 188.936 92.9749 188.919 92.76C188.357 93.3387 187.696 93.7437 186.935 93.9752C186.175 94.2067 185.398 94.3224 184.604 94.3224C183.992 94.3224 183.422 94.248 182.893 94.0992C182.364 93.9504 181.901 93.7189 181.504 93.4048C181.107 93.0907 180.793 92.6939 180.562 92.2144C180.347 91.7349 180.239 91.1645 180.239 90.5032C180.239 89.7757 180.363 89.1805 180.611 88.7176C180.876 88.2381 181.207 87.8579 181.603 87.5768C182.017 87.2957 182.48 87.0891 182.992 86.9568C183.521 86.808 184.05 86.6923 184.579 86.6096C185.108 86.5269 185.629 86.4608 186.142 86.4112C186.654 86.3616 187.109 86.2872 187.506 86.188C187.903 86.0888 188.217 85.9483 188.448 85.7664C188.68 85.568 188.787 85.2869 188.771 84.9232C188.771 84.5429 188.704 84.2453 188.572 84.0304C188.456 83.7989 188.291 83.6253 188.076 83.5096C187.878 83.3773 187.638 83.2947 187.357 83.2616C187.092 83.212 186.803 83.1872 186.489 83.1872C185.795 83.1872 185.249 83.336 184.852 83.6336C184.455 83.9312 184.224 84.4272 184.158 85.1216H180.636ZM188.771 87.7256C188.622 87.8579 188.432 87.9653 188.2 88.048C187.985 88.1141 187.745 88.172 187.481 88.2216C187.233 88.2712 186.968 88.3125 186.687 88.3456C186.406 88.3787 186.125 88.42 185.844 88.4696C185.58 88.5192 185.315 88.5853 185.051 88.668C184.803 88.7507 184.579 88.8664 184.381 89.0152C184.199 89.1475 184.05 89.3211 183.935 89.536C183.819 89.7509 183.761 90.0237 183.761 90.3544C183.761 90.6685 183.819 90.9331 183.935 91.148C184.05 91.3629 184.207 91.5365 184.406 91.6688C184.604 91.7845 184.836 91.8672 185.1 91.9168C185.365 91.9664 185.637 91.9912 185.919 91.9912C186.613 91.9912 187.15 91.8755 187.531 91.644C187.911 91.4125 188.192 91.1397 188.374 90.8256C188.556 90.4949 188.663 90.1643 188.696 89.8336C188.746 89.5029 188.771 89.2384 188.771 89.04V87.7256ZM204.127 87.552C204.127 88.0811 204.078 88.5936 203.978 89.0896C203.879 89.5856 203.714 90.032 203.482 90.4288C203.251 90.8091 202.937 91.1149 202.54 91.3464C202.16 91.5779 201.68 91.6936 201.102 91.6936C200.556 91.6936 200.085 91.5779 199.688 91.3464C199.308 91.0984 198.985 90.7843 198.721 90.404C198.473 90.0072 198.291 89.5608 198.175 89.0648C198.059 88.5688 198.002 88.0728 198.002 87.5768C198.002 87.0477 198.051 86.5435 198.15 86.064C198.266 85.568 198.44 85.1299 198.671 84.7496C198.919 84.3693 199.242 84.0635 199.638 83.832C200.035 83.6005 200.523 83.4848 201.102 83.4848C201.68 83.4848 202.16 83.6005 202.54 83.832C202.92 84.0635 203.226 84.3693 203.458 84.7496C203.706 85.1133 203.879 85.5432 203.978 86.0392C204.078 86.5187 204.127 87.0229 204.127 87.552ZM204.177 92.3632V94H207.525V76.2928H204.003V82.7408H203.954C203.557 82.1125 203.011 81.6413 202.317 81.3272C201.639 80.9965 200.92 80.8312 200.159 80.8312C199.217 80.8312 198.39 81.0213 197.679 81.4016C196.968 81.7653 196.373 82.2531 195.894 82.8648C195.431 83.4765 195.075 84.1875 194.827 84.9976C194.596 85.7912 194.48 86.6179 194.48 87.4776C194.48 88.3704 194.596 89.2301 194.827 90.0568C195.075 90.8835 195.431 91.6192 195.894 92.264C196.373 92.8923 196.976 93.3965 197.704 93.7768C198.431 94.1405 199.275 94.3224 200.234 94.3224C201.077 94.3224 201.829 94.1736 202.49 93.876C203.168 93.5619 203.714 93.0576 204.127 92.3632H204.177ZM212.914 89.8336H209.566C209.6 90.6933 209.79 91.4125 210.137 91.9912C210.501 92.5533 210.955 93.008 211.501 93.3552C212.063 93.7024 212.7 93.9504 213.41 94.0992C214.121 94.248 214.849 94.3224 215.593 94.3224C216.32 94.3224 217.031 94.248 217.726 94.0992C218.437 93.9669 219.065 93.7272 219.61 93.38C220.156 93.0328 220.594 92.5781 220.925 92.016C221.272 91.4373 221.446 90.7264 221.446 89.8832C221.446 89.288 221.33 88.792 221.098 88.3952C220.867 87.9819 220.561 87.6429 220.181 87.3784C219.801 87.0973 219.362 86.8741 218.866 86.7088C218.387 86.5435 217.891 86.4029 217.378 86.2872C216.882 86.1715 216.395 86.064 215.915 85.9648C215.436 85.8656 215.006 85.7581 214.626 85.6424C214.262 85.5101 213.964 85.3448 213.733 85.1464C213.501 84.948 213.386 84.6917 213.386 84.3776C213.386 84.1131 213.452 83.9064 213.584 83.7576C213.716 83.5923 213.873 83.4683 214.055 83.3856C214.254 83.3029 214.469 83.2533 214.7 83.2368C214.932 83.2037 215.146 83.1872 215.345 83.1872C215.973 83.1872 216.519 83.3112 216.982 83.5592C217.445 83.7907 217.701 84.2453 217.75 84.9232H221.098C221.032 84.1296 220.826 83.4765 220.478 82.964C220.148 82.4349 219.726 82.0133 219.214 81.6992C218.701 81.3851 218.114 81.1619 217.453 81.0296C216.808 80.8973 216.138 80.8312 215.444 80.8312C214.75 80.8312 214.072 80.8973 213.41 81.0296C212.749 81.1453 212.154 81.3603 211.625 81.6744C211.096 81.972 210.666 82.3853 210.335 82.9144C210.021 83.4435 209.864 84.1213 209.864 84.948C209.864 85.5101 209.98 85.9896 210.211 86.3864C210.443 86.7667 210.749 87.0891 211.129 87.3536C211.509 87.6016 211.939 87.8083 212.418 87.9736C212.914 88.1224 213.419 88.2547 213.931 88.3704C215.188 88.6349 216.163 88.8995 216.858 89.164C217.569 89.4285 217.924 89.8253 217.924 90.3544C217.924 90.6685 217.85 90.9331 217.701 91.148C217.552 91.3464 217.362 91.5117 217.13 91.644C216.916 91.7597 216.668 91.8507 216.386 91.9168C216.122 91.9664 215.866 91.9912 215.618 91.9912C215.27 91.9912 214.932 91.9499 214.601 91.8672C214.287 91.7845 214.006 91.6605 213.758 91.4952C213.51 91.3133 213.303 91.0901 213.138 90.8256C212.989 90.5445 212.914 90.2139 212.914 89.8336Z" fill="#333333"/>
<path d="M41.8427 30.5255C41.5592 29.899 40.9362 29.5 40.2502 29.5H33.2502V6.75C33.2502 5.784 32.4662 5 31.5002 5H24.5002C23.5342 5 22.7502 5.784 22.7502 6.75V29.5H15.7502C15.0642 29.5 14.4412 29.9025 14.1577 30.5255C13.8707 31.152 13.9827 31.8835 14.4342 32.4015L26.6842 46.4015C27.0167 46.783 27.4962 47 28.0002 47C28.5042 47 28.9837 46.7795 29.3162 46.4015L41.5662 32.4015C42.0212 31.887 42.1262 31.152 41.8427 30.5255Z" fill="#111111"/>
<path d="M47.25 43.5V54H8.75V43.5H1.75V57.5C1.75 59.4355 3.318 61 5.25 61H50.75C52.6855 61 54.25 59.4355 54.25 57.5V43.5H47.25Z" fill="#111111"/>
</g>
<defs>
<clipPath id="clip0">
<rect width="223" height="99" fill="white"/>
</clipPath>
</defs>
</svg>
